<svg xmlns="http://www.w3.org/2000/svg" width="1600" height="1200" viewBox="0 0 1600 1200">
    <defs>
        <linearGradient id="atelier-wash" x1="0%" y1="0%" x2="100%" y2="100%">
            <stop offset="0%" stop-color="#0d1622" />
            <stop offset="52%" stop-color="#173047" />
            <stop offset="100%" stop-color="#2d2846" />
        </linearGradient>
        <radialGradient id="atelier-spot" cx="82%" cy="16%" r="56%">
            <stop offset="0%" stop-color="#8dd9ff" stop-opacity="0.56" />
            <stop offset="100%" stop-color="#8dd9ff" stop-opacity="0" />
        </radialGradient>
    </defs>
    <rect width="1600" height="1200" fill="url(#atelier-wash)" />
    <rect width="1600" height="1200" fill="url(#atelier-spot)" />
    <path
        d="M-120 860C170 722 344 688 538 726C728 764 884 880 1070 846C1234 816 1364 680 1720 538V1200H-120Z"
        fill="#8dd9ff"
        fill-opacity="0.14"
    />
    <path
        d="M-40 920C238 826 408 810 634 854C790 886 934 964 1098 958C1266 952 1398 874 1648 760"
        fill="none"
        stroke="#8dd9ff"
        stroke-opacity="0.62"
        stroke-width="4"
    />
    <circle cx="1348" cy="224" r="208" fill="#ffffff" fill-opacity="0.06" />
    <circle cx="206" cy="210" r="132" fill="#f5d6b2" fill-opacity="0.08" />
</svg>
