<svg xmlns="http://www.w3.org/2000/svg" width="900" height="1080" viewBox="0 0 900 1080">
    <defs>
        <linearGradient id="studio-card" x1="0%" y1="0%" x2="100%" y2="100%">
            <stop offset="0%" stop-color="#1d3042" />
            <stop offset="100%" stop-color="#8ccff3" />
        </linearGradient>
        <radialGradient id="studio-glow" cx="52%" cy="20%" r="58%">
            <stop offset="0%" stop-color="#ffe0c0" stop-opacity="0.74" />
            <stop offset="100%" stop-color="#ffe0c0" stop-opacity="0" />
        </radialGradient>
    </defs>
    <rect width="900" height="1080" rx="84" fill="#ffffff" fill-opacity="0.08" />
    <rect x="84" y="84" width="732" height="912" rx="52" fill="url(#studio-card)" />
    <rect x="84" y="84" width="732" height="912" rx="52" fill="url(#studio-glow)" />
    <rect x="140" y="146" width="228" height="18" rx="9" fill="#f6efe6" fill-opacity="0.32" />
    <rect x="140" y="184" width="336" height="18" rx="9" fill="#f6efe6" fill-opacity="0.18" />
    <rect x="140" y="274" width="620" height="342" rx="42" fill="#f6efe6" fill-opacity="0.16" />
    <circle cx="328" cy="430" r="108" fill="#f6efe6" fill-opacity="0.28" />
    <circle cx="610" cy="454" r="166" fill="#0e1723" fill-opacity="0.22" />
    <rect x="140" y="676" width="430" height="22" rx="11" fill="#f6efe6" fill-opacity="0.38" />
    <rect x="140" y="718" width="548" height="18" rx="9" fill="#f6efe6" fill-opacity="0.18" />
    <rect x="140" y="756" width="492" height="18" rx="9" fill="#f6efe6" fill-opacity="0.18" />
    <rect x="140" y="842" width="198" height="64" rx="32" fill="#0e1723" fill-opacity="0.8" />
    <rect x="362" y="842" width="140" height="64" rx="32" fill="#f6efe6" fill-opacity="0.2" />
</svg>
